<svg id="a54325dd-b200-402d-9a15-b953091eeb6e" data-name="Слой 1" xmlns="http://www.w3.org/2000/svg" width="183.08" height="22.47" viewBox="0 0 183.08 22.47">
  <g>
    <path d="M120.54,55.23h-5.82l-1.18,3.56h-2.69L116,43.21h4l5.17,15.58H121.7Zm-2.9-9.06L115.42,53h4.4Z" transform="translate(-9.78 -40.53)" style="fill: #1d1d1b"/>
    <path d="M133.74,59a4.22,4.22,0,0,1-2.16-.53A4.27,4.27,0,0,1,130.1,57v5.81h-3.31V47.43h3l.25,1.88a4.14,4.14,0,0,1,1.5-1.55,4.43,4.43,0,0,1,2.28-.56,5.13,5.13,0,0,1,1.9.36,4.52,4.52,0,0,1,1.6,1.09,5.2,5.2,0,0,1,1.09,1.84,8.51,8.51,0,0,1,0,5.22,5.22,5.22,0,0,1-1.11,1.85,4.46,4.46,0,0,1-1.6,1.1A5.21,5.21,0,0,1,133.74,59Zm-1-2.13a2.34,2.34,0,0,0,1.89-.91,4.58,4.58,0,0,0,.74-2.88,4.46,4.46,0,0,0-.75-2.85,2.34,2.34,0,0,0-1.88-.92,2.46,2.46,0,0,0-1.94.91,4.34,4.34,0,0,0-.78,2.86,6.07,6.07,0,0,0,.21,1.7,3.33,3.33,0,0,0,.57,1.18,2.4,2.4,0,0,0,.86.68A2.58,2.58,0,0,0,132.79,56.89Z" transform="translate(-9.78 -40.53)" style="fill: #1d1d1b"/>
    <path d="M146.51,59a6.73,6.73,0,0,1-2.4-.43,5,5,0,0,1-1.92-1.3,5.9,5.9,0,0,1-1.27-2.23,10.26,10.26,0,0,1-.45-3.22,23.48,23.48,0,0,1,.11-2.41,11.71,11.71,0,0,1,.41-2.15,7.06,7.06,0,0,1,.8-1.81,4.49,4.49,0,0,1,1.33-1.38A6,6,0,0,1,145.55,43a18.44,18.44,0,0,1,2.89-.3,8.82,8.82,0,0,0,1-.08c.27,0,.5-.07.7-.11a4.71,4.71,0,0,0,.51-.13l.44-.19.34,2.51a2.67,2.67,0,0,1-1.12.42,14.91,14.91,0,0,1-1.64.18c-1,.08-1.83.17-2.48.28a3.23,3.23,0,0,0-1.65.75,3,3,0,0,0-1.1,1.65,11.53,11.53,0,0,0-.41,2.61,4.23,4.23,0,0,1,1.63-2.17,4.77,4.77,0,0,1,2.74-.74,5.32,5.32,0,0,1,2.08.39,4.35,4.35,0,0,1,1.58,1.11,5,5,0,0,1,1,1.74,6.48,6.48,0,0,1,.37,2.25,6.18,6.18,0,0,1-.47,2.47,5.47,5.47,0,0,1-1.25,1.81,5.29,5.29,0,0,1-1.89,1.13A7,7,0,0,1,146.51,59Zm-.07-2.13a2.34,2.34,0,0,0,1.88-.88,4.18,4.18,0,0,0,.73-2.71,4.16,4.16,0,0,0-.72-2.68,2.25,2.25,0,0,0-1.84-.88,2.34,2.34,0,0,0-1.86.88,4,4,0,0,0-.74,2.68A4.24,4.24,0,0,0,144.6,56,2.26,2.26,0,0,0,146.44,56.89Z" transform="translate(-9.78 -40.53)" style="fill: #1d1d1b"/>
    <path d="M156.11,63a8,8,0,0,1-1.48-.11,3.39,3.39,0,0,1-.87-.29l.38-2.27c.11.06.31.14.61.26a3.58,3.58,0,0,0,1.18.16,2,2,0,0,0,1.81-1.27l-4.57-12.06h3.37L159.6,56l3.06-8.52h2.74l-4.17,11a14.15,14.15,0,0,1-.95,2.08,5.77,5.77,0,0,1-1.11,1.44,4.09,4.09,0,0,1-1.36.83A5,5,0,0,1,156.11,63Z" transform="translate(-9.78 -40.53)" style="fill: #1d1d1b"/>
    <path d="M170.62,59a8.83,8.83,0,0,1-2.56-.32,4.69,4.69,0,0,1-1.47-.65l.77-2.15a5.32,5.32,0,0,0,1.33.69,5.15,5.15,0,0,0,1.82.3,3,3,0,0,0,1.59-.36,1.32,1.32,0,0,0,.59-1.2,1.13,1.13,0,0,0-.56-1,3.73,3.73,0,0,0-1.82-.34H168.7v-1.9h1.56c1.38,0,2.06-.44,2.06-1.31a1.19,1.19,0,0,0-.53-1.09,2.32,2.32,0,0,0-1.26-.34,5,5,0,0,0-1.93.32,9.16,9.16,0,0,0-1.3.67l-.55-2.18a5.9,5.9,0,0,1,1.54-.65,9.76,9.76,0,0,1,2.58-.29,6.7,6.7,0,0,1,3.49.76,2.44,2.44,0,0,1,1.22,2.2,2.33,2.33,0,0,1-.66,1.77,4.09,4.09,0,0,1-1.94.92,4.24,4.24,0,0,1,2.26.82,2.28,2.28,0,0,1,.77,1.87,2.86,2.86,0,0,1-.4,1.53,3.38,3.38,0,0,1-1.14,1.08,5.49,5.49,0,0,1-1.71.65A9.57,9.57,0,0,1,170.62,59Z" transform="translate(-9.78 -40.53)" style="fill: #1d1d1b"/>
    <path d="M178.37,47.43h3.3V51h1.63a6.33,6.33,0,0,1,3.74,1,3.32,3.32,0,0,1,1.34,2.87,3.54,3.54,0,0,1-1.45,3,4.85,4.85,0,0,1-1.62.76,7.43,7.43,0,0,1-2.05.26h-4.89Zm3.3,5.44v4h1.18a2.6,2.6,0,0,0,1.6-.46,1.83,1.83,0,0,0,.6-1.54,1.94,1.94,0,0,0-.56-1.55,2.37,2.37,0,0,0-1.57-.47Zm11.19,5.92h-3.28V47.43h3.28Z" transform="translate(-9.78 -40.53)" style="fill: #1d1d1b"/>
  </g>
  <path id="eeb2b3b2-54bb-4f2e-8cf8-5f79f9c40746" data-name="Name" d="M82.34,59.16a5.58,5.58,0,0,0,3.34-.82V55.77a5.33,5.33,0,0,1-3.15.89c-2.3,0-3.26-1.73-3.26-4.48s1.17-4.36,3.28-4.36a6.27,6.27,0,0,1,3.11.83V46a7.86,7.86,0,0,0-3.48-.62c-4.13,0-6.27,2.88-6.27,6.92C75.94,56.7,78,59.16,82.34,59.16ZM62.17,58V55.43a8.33,8.33,0,0,1-4.26,1.25c-2.36,0-3.25-1.09-3.4-3.31h7.8V51.72c0-4.63-2.09-6.36-5.31-6.36-3.94,0-5.8,2.93-5.8,6.94,0,4.62,2.34,6.86,6.45,6.86A8.23,8.23,0,0,0,62.17,58ZM32.57,45.6v5.25H28.26V45.6H25V58.9h3.24V53.35h4.31V58.9h3.24V45.6ZM50.39,56.4H49V45.6H39.54v1.13c0,3.25-.21,7.45-1.35,9.67h-1v5.53h3v-3h7.24v3h3V56.4Zm22.08,2.5h3.67L71,51.74l4.56-6.14H72.27L67.7,51.74V45.6H64.47V58.9H67.7V52.36ZM56.92,47.82c1.6,0,2.09,1.29,2.09,3v.26h-4.5C54.6,48.93,55.38,47.82,56.92,47.82ZM45.72,56.4H41.16c.89-2,1.14-5.63,1.14-7.93v-.41h3.42Z" transform="translate(-9.78 -40.53)" style="fill: #010101"/>
  <path id="b2ca84f0-d21f-4de7-a00d-d4d2538c0dd6" data-name="Glyph" d="M22.33,58.9H19V43H17.56c-2.7,0-4.11,1.31-4.11,3.27,0,2.22,1,3.25,3,4.56l1.66,1.09-4.77,7H9.78l4.3-6.21c-2.47-1.72-3.86-3.4-3.86-6.22,0-3.53,2.53-5.94,7.32-5.94h4.77V58.9Z" transform="translate(-9.78 -40.53)" style="fill: #1d1d1b"/>
  <ellipse cx="102.48" cy="51.17" rx="6.4" ry="6.68" transform="translate(-16.07 46.55) rotate(-44.8)" style="fill: #669953"/>
  <ellipse cx="100.48" cy="50.34" rx="5.86" ry="4.54" transform="translate(11.38 89.42) rotate(-71.71)" style="fill: #c23544"/>
  <path d="M98.54,55.3c.35,1.19-2.47,4.64-5.65,4.63s-6-3.48-5.64-4.63c.15-.47.79-.42,4.89-.42C97.66,54.87,98.38,54.78,98.54,55.3Z" transform="translate(-9.78 -40.53)" style="fill: #669953"/>
</svg>
